<svg id="svg2" xmlns="http://www.w3.org/2000/svg" viewBox="0 0 595.3 330.9" width="595" height="330" enable-background="new 0 0 595.3 330.9"><style>.st0{filter:url(#filter4180)}.st1{fill:#ffefe8}.st2{fill:#ffe0d1}.st3{fill:#fd8447}.st4{fill:#fff}.st5{fill:#212121}.st6{fill:#303030}.st7{fill:none;stroke:#333;stroke-width:2.4;stroke-linecap:round;stroke-linejoin:round;stroke-miterlimit:3.2}.st8{fill:#fea375}.st9{fill:#fed8c5}.st10{fill:#e8fbeb}.st11{fill:#fd6519}.st12{fill:#feb28c}</style><filter id="filter4180" color-interpolation-filters="sRGB"><feBlend id="feBlend4182" in2="BackgroundImage" mode="screen"/></filter><g id="layer1" class="st0"><path id="path4532_1_" class="st1" d="M496.2 124.3C509.9 205 466.5 354 317 289.7c-69.4-29.8-206.6 26.2-220.4-54.5s15-160.8 153-193.5 232.8 1.9 246.6 82.6z"/><path id="path4566_1_" class="st2" d="M224.6 139.5l-78 139.5c49.9 8.6 124.8-8.9 170.3 10.7 16.7 7.2 32 11.7 46.1 13.9l10.2-132.4-148.6-31.7z"/><path id="path4635_1_" class="st3" d="M206.7 136.1c-1.4 0-2.5 1.1-2.5 2.5s1.1 2.5 2.5 2.5h10.1c1.4 0 2.5 1.1 2.5 2.5s-1.1 2.5-2.5 2.5h-1.5c-1.4 0-2.5 1.1-2.5 2.5s1.1 2.5 2.5 2.5h22c1.4 0 2.5-1.1 2.5-2.5s-1.1-2.5-2.5-2.5h-7.5c-1.4 0-2.5-1.1-2.5-2.5s1.1-2.5 2.5-2.5h13.7c1.4 0 2.5-1.1 2.5-2.5s-1.1-2.5-2.5-2.5h-36.8z"/><path id="path4588_1_" class="st4" d="M252.3 145.5l-60.2 136c4.5-.1 9.2-.2 13.8-.3l60.2-128.6-13.8-7.1zm23.8 5l-62.3 130.3 7.5-.3 61.1-128.7-6.3-1.3zm40.5 8.7l-43.4 121.4c2.2.1 4.3.3 6.4.5l42.8-120.7-5.8-1.2z"/><path id="rect4406_1_" class="st3" d="M335.1 43.6c-1.5 0-2.7 1.2-2.7 2.7 0 1.5 1.2 2.7 2.7 2.7h34.6c1.5 0 2.7 1.2 2.7 2.7s-1.2 2.7-2.7 2.7h-40c-1.5 0-2.7 1.2-2.7 2.7 0 1.5 1.2 2.7 2.7 2.7h55.5c1.5 0 2.7-1.2 2.7-2.7s-1.2-2.7-2.7-2.7h-1.6c-1.5 0-2.7-1.2-2.7-2.7s1.2-2.7 2.7-2.7h10.7c1.5 0 2.7-1.2 2.7-2.7 0-1.5-1.2-2.7-2.7-2.7h-59.2zm66.2 0c-1.5 0-2.7 1.2-2.7 2.7 0 1.5 1.2 2.7 2.7 2.7h1.4c1.5 0 2.7-1.2 2.7-2.7 0-1.5-1.2-2.7-2.7-2.7h-1.4z"/><g id="g4535_1_" transform="translate(16.162 -71.72)"><g id="g4435_1_" transform="rotate(12.515 948.385 3.258)"><path id="path4250_1_" class="st5" d="M347.2 391.1c-44.5 0-80.5-28-80.5-62.6.1-5.4 1-10.7 2.8-15.9 22.8-6 49.9-9.2 77.7-9.2 27.9 0 55 3.3 77.8 9.3 1.8 5.2 2.7 10.5 2.7 15.8 0 34.5-36 62.6-80.5 62.6z"/><path id="path4390_1_" class="st6" d="M370.3 304.1c6.1 10.9 9.3 23.2 9.3 35.8 0 18.9-7.2 37-20.1 50.4 39.2-4.7 68.2-31 68.2-61.9 0-5.3-1-10.6-2.7-15.8-16.3-4.3-35-7.2-54.7-8.5z"/><path id="path4289_1_" class="st7" d="M347.2 391.1c-44.5 0-80.5-28-80.5-62.6.1-5.4 1-10.7 2.8-15.9 22.8-6 49.9-9.2 77.7-9.2 27.9 0 55 3.3 77.8 9.3 1.8 5.2 2.7 10.5 2.7 15.8 0 34.5-36 62.6-80.5 62.6z"/><path id="path4252_1_" class="st1" d="M252.4 320c0 .1 0 .1 0 0zm0 .1l-4.7 2.2c0 20.4 47.4 44.7 100.1 44.7 52.7 0 100.1-24.3 100.1-44.7 1.4-4-4.1-.3-4.7-2.3 0 20.4-42.7 36.9-95.4 36.9-52.7.1-95.4-16.4-95.4-36.8zm190.8-.1c0 .1.1.1 0 0z"/><ellipse id="ellipse4254_1_" transform="rotate(90 347.812 320.128)" class="st3" cx="347.8" cy="320.1" rx="38.7" ry="100.3"/><path id="ellipse4383_1_" class="st8" d="M370.2 282.4c8.8 10.6 13.5 22.6 13.5 34.7 0 14.8-7 29.2-19.8 41.3 48.5-3 84.2-19.2 84.3-38.2-.1-18.1-32.5-33.8-78-37.8z"/><path id="path4268_1_" class="st7" d="M347.8 281.4c-55.4 0-100.3 17.3-100.3 38.7 0 .7.1 1.5.2 2.2 0 20.4 47.4 44.7 100.1 44.7s100.1-24.3 100.1-44.7c.3-.8.3-1.3.1-1.6 0-.2.1-.5.1-.7 0-21.3-44.9-38.6-100.3-38.6z"/><path id="path4256_1_" class="st9" d="M347.2 243c-32.5 0-58.9 26.4-58.9 58.9 0 5 .7 10 2 14.9 16.6 5.6 36.5 8.7 56.8 8.7 20.4 0 40.2-3.1 56.9-8.7 1.3-4.8 2-9.8 2-14.8.1-32.6-26.3-59-58.8-59z"/><path id="path4412_1_" class="st10" d="M356.6 243.8c8.2 14.2 12.5 30.9 12.5 48.1 0 11.3-1.9 22.4-5.5 32.8 14.6-1.2 28.4-3.9 40.5-8 1.3-4.8 2-9.8 2-14.8 0-28.9-21-53.5-49.5-58.1z"/><path id="path4287_1_" class="st7" d="M347.2 243c-32.5 0-58.9 26.4-58.9 58.9 0 5 .7 10 2 14.9 16.6 5.6 36.5 8.7 56.8 8.7 20.4 0 40.2-3.1 56.9-8.7 1.3-4.8 2-9.8 2-14.8.1-32.6-26.3-59-58.8-59z"/><path id="path4310_1_" class="st3" d="M289.3 366.5c-3 0-5.1 1.1-5.6 2.8-.8 2.8 2.8 6.5 8 8.2 5.2 1.8 10.1.9 11-1.9.8-2.8-2.8-6.5-8-8.2-1.8-.6-3.7-.9-5.4-.9zm115.8 0c-1.7 0-3.5.3-5.4.9-5.2 1.8-8.8 5.5-8 8.2.8 2.8 5.7 3.6 11 1.9 5.2-1.8 8.8-5.5 8-8.2-.5-1.8-2.6-2.8-5.6-2.8zm-58.3 9.6c-5.5 0-10 2.2-10 5 0 2.7 4.5 5 10 5s10-2.2 10-5-4.4-5-10-5z"/><path id="path4317_1_" class="st7" d="M289.3 366.5c-3 0-5.1 1.1-5.6 2.8-.8 2.8 2.8 6.5 8 8.2 5.2 1.8 10.1.9 11-1.9.8-2.8-2.8-6.5-8-8.2-1.8-.6-3.7-.9-5.4-.9zm115.8 0c-1.7 0-3.5.3-5.4.9-5.2 1.8-8.8 5.5-8 8.2.8 2.8 5.7 3.6 11 1.9 5.2-1.8 8.8-5.5 8-8.2-.5-1.8-2.6-2.8-5.6-2.8zm-58.3 9.6c-5.5 0-10 2.2-10 5 0 2.7 4.5 5 10 5s10-2.2 10-5-4.4-5-10-5z"/><path id="path4367_1_" class="st1" d="M274.1 311.4c-3.6 0-6.4 2.9-6.4 6.4 0 3.6 2.9 6.4 6.4 6.4 3.6 0 6.4-2.9 6.4-6.4 0-3.5-2.9-6.4-6.4-6.4zm149.5 0c-3.6 0-6.4 2.9-6.4 6.4 0 3.6 2.9 6.4 6.4 6.4 3.6 0 6.4-2.9 6.4-6.4 0-3.5-2.9-6.4-6.4-6.4zm-120.1 18.3c-3.6 0-6.4 2.9-6.4 6.4 0 3.6 2.9 6.4 6.4 6.4 3.6 0 6.4-2.9 6.4-6.4 0-3.5-2.9-6.4-6.4-6.4zm92 0c-3.6 0-6.4 2.9-6.4 6.4 0 3.6 2.9 6.4 6.4 6.4 3.6 0 6.4-2.9 6.4-6.4 0-3.5-2.9-6.4-6.4-6.4zm-47.2 6.3c-3.6 0-6.4 2.9-6.4 6.4 0 3.6 2.9 6.4 6.4 6.4 3.6 0 6.4-2.9 6.4-6.4.1-3.5-2.8-6.4-6.4-6.4z"/><path id="path4347_1_" class="st7" d="M274.1 311.4c-3.6 0-6.4 2.9-6.4 6.4 0 3.6 2.9 6.4 6.4 6.4 3.6 0 6.4-2.9 6.4-6.4 0-3.5-2.9-6.4-6.4-6.4zm149.5 0c-3.6 0-6.4 2.9-6.4 6.4 0 3.6 2.9 6.4 6.4 6.4 3.6 0 6.4-2.9 6.4-6.4 0-3.5-2.9-6.4-6.4-6.4zm-120.1 18.3c-3.6 0-6.4 2.9-6.4 6.4 0 3.6 2.9 6.4 6.4 6.4 3.6 0 6.4-2.9 6.4-6.4 0-3.5-2.9-6.4-6.4-6.4zm92 0c-3.6 0-6.4 2.9-6.4 6.4 0 3.6 2.9 6.4 6.4 6.4 3.6 0 6.4-2.9 6.4-6.4 0-3.5-2.9-6.4-6.4-6.4zm-47.2 6.3c-3.6 0-6.4 2.9-6.4 6.4 0 3.6 2.9 6.4 6.4 6.4 3.6 0 6.4-2.9 6.4-6.4.1-3.5-2.8-6.4-6.4-6.4z"/></g><path id="path4453_1_" class="st5" d="M277.5 251.6c-43.4-9.6-72.5-44.8-65-78.6 1.2-5.2 3.3-10.2 6.2-14.9 23.5-.9 50.7 1.8 77.9 7.8 27.2 6.1 53 15.1 73.9 25.9.6 5.4.4 10.8-.8 16-7.5 33.8-48.8 53.4-92.2 43.8z"/><path id="path4455_1_" class="st6" d="M318.8 171.7c3.6 11.9 4.1 24.7 1.4 36.9-4.1 18.4-15.1 34.5-30.5 44.8 39.3 3.9 73.3-15.5 80-45.6 1.1-5.2 1.4-10.6.8-16-15.1-7.7-32.8-14.6-51.7-20.1z"/><path id="path4457_1_" class="st11" d="M236.9 156.9c-6.3-.2-12.5-.2-18.4 0-.4 0-.8.2-1 .6-2.9 4.8-5.1 9.9-6.3 15.2-3.8 17.3 1.7 34.9 13.7 49.4s30.3 25.8 52.3 30.7c21.9 4.9 43.4 2.4 60.3-5.7s29.4-21.7 33.3-39c1.1-5.3 1.4-10.9.8-16.4 0-.4-.3-.7-.6-.9-21-10.9-46.9-19.9-74.2-26-20.5-4.6-40.9-7.2-59.9-7.9zm0 2.4c18.8.7 39.1 3.3 59.4 7.8 26.8 6 52.3 14.9 73 25.5.5 5.1.3 10.1-.8 15-3.7 16.5-15.5 29.5-32 37.3-16.4 7.8-37.3 10.3-58.8 5.5-21.5-4.8-39.4-15.8-50.9-29.8-11.6-14-16.8-30.8-13.2-47.3 1.1-4.9 3.1-9.6 5.7-13.9 5.7-.3 11.5-.3 17.6-.1z"/><path id="path4459_1_" class="st1" d="M200.3 161.7zm-.1.1l-5.1 1.2c-4.4 19.9 36.6 54 88.1 65.4 51.5 11.4 103-2 107.4-21.9 2.3-3.6-3.9-1.2-4.1-3.2-4.4 19.9-49.7 26.7-101.2 15.3-51.3-11.6-89.5-36.9-85.1-56.8zM386.6 203c0 .1 0 .1 0 0z"/><ellipse id="ellipse4461_1_" transform="rotate(-77.484 293.436 182.468)" class="st3" cx="293.4" cy="182.5" rx="38.7" ry="100.3"/><path id="path4463_1_" class="st8" d="M323.4 150.5c6.3 12.3 8.2 24.9 5.6 36.8-3.2 14.4-13.1 27-28.3 36 48.1 7.6 86.4-.5 90.5-19.1 4-17.6-24.2-39.9-67.8-53.7z"/><path id="path4465_1_" class="st11" d="M254.1 137.6c-8.8-.1-16.9.4-24.2 1.5-9.7 1.5-17.9 4-24.1 7.5s-10.3 8.2-11.5 13.8c-.1.7-.2 1.3-.3 2 0 .1 0 .1-.1.2-1.2 5.4.7 11.6 4.8 17.9 4.1 6.3 10.5 12.9 18.7 19.2 16.3 12.6 39.5 24 65.4 29.7 25.9 5.8 51.8 5.2 71.9.8 10-2.2 18.6-5.5 25-9.4 6.3-3.9 10.6-8.6 11.9-14 .3-.6.5-1.1.5-1.7.1-.2.2-.4.2-.6v-.1c1.3-5.6-.5-11.6-4.6-17.4-4.1-5.8-10.4-11.5-18.6-17-16.4-10.9-40-20.6-67.2-26.6-16.8-3.7-33.1-5.6-47.8-5.8zm0 2.4c14.4.2 30.6 2 47.4 5.8 26.9 6 50.3 15.6 66.4 26.3 8 5.3 14.2 10.9 18 16.4 3.8 5.4 5.3 10.6 4.2 15.4-.1.2-.1.3-.2.5-.1.3-.1.6 0 .9-.1-.2.1-.2-.3.4-.1.1-.1.2-.2.4-1 4.5-4.8 8.9-10.9 12.7-6.1 3.8-14.4 6.9-24.3 9.1-19.7 4.4-45.3 4.9-70.8-.8s-48.5-17-64.5-29.3c-8-6.2-14.2-12.6-18.1-18.6-3.9-5.9-5.4-11.4-4.5-15.9 0-.1.1-.2.1-.4 0-.7.1-1.3.3-2 1.1-4.8 4.6-8.9 10.4-12.2 5.8-3.3 13.7-5.8 23.2-7.2 7.1-1 15.2-1.6 23.8-1.5z"/><path id="path4467_1_" class="st9" d="M309.6 107.1c-31.7-7-63.2 13-70.2 44.7-1.1 4.9-1.5 10-1.2 15 15 9.1 33.7 16.4 53.6 20.8 19.9 4.4 39.9 5.7 57.4 3.8 2.3-4.4 4-9.2 5.2-14.1 6.9-31.8-13.1-63.2-44.8-70.2z"/><path id="path4469_1_" class="st4" d="M320.6 120.4c4 12 4.5 25.3 1.5 38.1-2 8.4-5.5 16.5-10.2 23.7 11.8 1.5 23.3 1.8 33.7.7 1.9-3.4 3.3-7 4.2-10.8 5-21.6-7.3-43.5-29.2-51.7z"/><path id="path4471_1_" class="st11" d="M297.8 104.5c-27.9-.5-53.3 18.7-59.6 47-1.1 5-1.5 10.2-1.3 15.3 0 .4.2.8.6 1 15.2 9.2 34 16.5 54 20.9 20 4.4 40.2 5.8 57.8 3.8.4 0 .7-.3.9-.6 2.4-4.5 4.1-9.4 5.3-14.4 7.2-32.4-13.2-64.5-45.6-71.6-4.1-.9-8.2-1.4-12.1-1.4zm-.1 2.4c3.8.1 7.7.5 11.6 1.4 31.1 6.9 50.7 37.7 43.8 68.8-1 4.6-2.7 9-4.8 13.2-17.2 1.8-36.8.5-56.3-3.8s-37.8-11.4-52.6-20.3c-.2-4.7.2-9.4 1.2-14 6-27.4 30.3-45.8 57.1-45.3z"/><path id="path4473_1_" class="st3" d="M226.3 215c-2.9-.6-5.2-.1-6.1 1.5-1.4 2.6 1.3 6.9 6 9.8 4.7 2.9 9.7 3.1 11.1.5 1.4-2.6-1.3-6.9-6-9.8-1.6-.9-3.4-1.6-5-2zm113 25.1c-1.6-.4-3.5-.5-5.4-.3-5.5.6-9.8 3.4-9.6 6.3.2 2.9 4.8 4.8 10.3 4.2 5.5-.6 9.8-3.4 9.6-6.3-.1-1.7-1.9-3.2-4.9-3.9zm-59-3.2c-5.4-1.2-10.3 0-10.9 2.7-.6 2.7 3.3 5.8 8.7 7 5.4 1.2 10.3 0 10.9-2.7.6-2.7-3.3-5.8-8.7-7z"/><path id="path4475_1_" class="st11" d="M224.3 213.6c-.7 0-1.4.1-2.1.2-1.3.3-2.4 1-3 2.2-1 1.8-.5 4 .8 6 1.2 2 3.2 3.9 5.7 5.4 2.5 1.5 5.1 2.4 7.4 2.5 2.3.1 4.4-.6 5.4-2.4 1-1.8.5-4-.8-6s-3.2-3.9-5.7-5.4c-1.7-1.1-3.6-1.8-5.4-2.2-.8-.2-1.6-.3-2.3-.3zm-1.5 2.5c.8-.2 1.9-.2 3.3.1 1.5.3 3.1 1 4.7 1.9 2.2 1.3 4 3 4.9 4.6 1 1.6 1.1 2.8.7 3.6-.4.7-1.4 1.2-3.2 1.1-1.7-.1-4-.8-6.2-2.1s-4-3-4.9-4.6c-1-1.6-1.1-2.8-.7-3.6.1-.4.6-.8 1.4-1zm53.7 19.1c-1.3 0-2.5.1-3.6.4-2.2.5-4.1 1.7-4.5 3.7-.4 2 .8 3.8 2.5 5.3 1.8 1.4 4.2 2.6 7.1 3.2 2.9.6 5.6.7 7.8.1 2.2-.5 4.1-1.7 4.5-3.7.4-2-.8-3.8-2.5-5.2s-4.2-2.6-7.1-3.2c-1.5-.4-2.9-.6-4.2-.6zm-.1 2.4c1.1 0 2.4.2 3.6.4 2.5.6 4.7 1.6 6.1 2.7 1.4 1.1 1.8 2.2 1.7 2.9-.2.7-1 1.5-2.7 1.9-1.7.4-4.1.4-6.7-.1-2.5-.6-4.7-1.6-6.1-2.7s-1.8-2.2-1.7-2.9c.2-.7 1-1.5 2.7-1.9.9-.2 2-.3 3.1-.3zm60.4 1c-1 0-2 0-3 .1-2.9.3-5.5 1.2-7.5 2.5-1.9 1.3-3.4 3-3.2 5.1.1 2.1 1.8 3.6 3.9 4.4s4.8 1.2 7.7.9c2.9-.3 5.5-1.2 7.5-2.5s3.4-3 3.2-5.1c-.1-1.3-.8-2.4-1.8-3.2s-2.4-1.4-4-1.8c-.9-.3-1.8-.4-2.8-.4zm-.1 2.4c.9 0 1.7.1 2.4.3 1.3.3 2.3.8 3 1.3.6.5.9 1 .9 1.5.1.8-.6 1.9-2.1 2.9s-3.8 1.8-6.4 2.1c-2.6.3-4.9 0-6.6-.7-1.6-.7-2.4-1.5-2.4-2.4-.1-.8.6-1.9 2.1-2.9s3.8-1.8 6.4-2.1c.9 0 1.8-.1 2.7 0z"/><path id="path4477_1_" class="st1" d="M223.3 158c-3.5-.8-6.9 1.4-7.7 4.9-.8 3.5 1.4 6.9 4.9 7.7 3.5.8 6.9-1.4 7.7-4.9.8-3.5-1.4-6.9-4.9-7.7zm146 32.4c-3.5-.8-6.9 1.4-7.7 4.9-.8 3.5 1.4 6.9 4.9 7.7 3.5.8 6.9-1.4 7.7-4.9.7-3.5-1.5-6.9-4.9-7.7zm-121.2-8.2c-3.5-.8-6.9 1.4-7.7 4.9-.8 3.5 1.4 6.9 4.9 7.7 3.5.8 6.9-1.4 7.7-4.9.7-3.5-1.5-6.9-4.9-7.7zm89.8 20c-3.5-.8-6.9 1.4-7.7 4.9-.8 3.5 1.4 6.9 4.9 7.7 3.5.8 6.9-1.4 7.7-4.9.7-3.5-1.4-7-4.9-7.7zm-47.4-4.1c-3.5-.8-6.9 1.4-7.7 4.9-.8 3.5 1.4 6.9 4.9 7.7 3.5.8 6.9-1.4 7.7-4.9.8-3.5-1.4-6.9-4.9-7.7z"/><path id="path4479_1_" class="st11" d="M220.5 156.8c-2.9.5-5.4 2.8-6.1 5.8-.9 4.1 1.7 8.2 5.8 9.1 4.1.9 8.2-1.7 9.1-5.8.9-4.1-1.7-8.2-5.8-9.1-1-.2-2-.2-3 0zm.5 2.3c.7-.1 1.4-.1 2.1 0 2.8.6 4.6 3.4 4 6.2-.6 2.8-3.4 4.6-6.2 4-2.8-.6-4.6-3.4-4-6.2.4-2.1 2.1-3.6 4.1-4zm24.3 21.9c-2.9.5-5.4 2.8-6.1 5.9-.9 4.1 1.7 8.2 5.8 9.1 4.1.9 8.2-1.7 9.1-5.8.9-4.1-1.7-8.2-5.8-9.1-1-.3-2-.3-3-.1zm.4 2.4c.7-.1 1.4-.1 2.1 0 2.8.6 4.6 3.4 4 6.2-.6 2.8-3.4 4.6-6.2 4-2.8-.6-4.6-3.4-4-6.2.4-2.2 2.1-3.7 4.1-4zm120.8 5.8c-2.9.5-5.4 2.8-6.1 5.9-.9 4.1 1.7 8.2 5.8 9.1 4.1.9 8.2-1.7 9.1-5.8.9-4.1-1.7-8.2-5.8-9.1-1-.3-2-.3-3-.1zm.4 2.3c.7-.1 1.4-.1 2.1 0 2.8.6 4.6 3.4 4 6.2-.6 2.8-3.4 4.6-6.2 4-2.8-.6-4.6-3.4-4-6.2.4-2.1 2.1-3.6 4.1-4zm-79.2 5.4c-2.9.5-5.4 2.8-6.1 5.8-.9 4.1 1.7 8.2 5.8 9.1 4.1.9 8.2-1.7 9.1-5.8.9-4.1-1.7-8.2-5.8-9.1-1-.2-2-.2-3 0zm.5 2.3c.7-.1 1.4-.1 2.1 0 2.8.6 4.6 3.4 4 6.2-.6 2.8-3.4 4.6-6.2 4-2.8-.6-4.6-3.4-4-6.2.4-2.1 2.1-3.6 4.1-4zm46.9 1.7c-2.9.5-5.4 2.8-6.1 5.9-.9 4.1 1.7 8.2 5.8 9.1 4.1.9 8.2-1.7 9.1-5.8.9-4.1-1.7-8.2-5.8-9.1-1-.2-2-.2-3-.1zm.4 2.4c.7-.1 1.4-.1 2.1 0 2.8.6 4.6 3.4 4 6.2-.6 2.8-3.4 4.6-6.2 4-2.8-.6-4.6-3.4-4-6.2.5-2.1 2.1-3.6 4.1-4z"/></g><g id="g4575_1_" transform="translate(29.856 -50.448)"><path id="path4573_1_" class="st12" d="M46.1 108.6v100.2h74.4v59.6h28.6V108.7h-28.6V180H74.8v-71.4H46.1z"/><path id="rect4501_1_" class="st9" d="M58.4 102.2v100.2h74.4V262h28.6V102.3h-28.6v71.3H87.2v-71.4H58.4z"/><path id="path4508_1_" class="st11" d="M52.2 96.6c-.6 0-1 .5-1 1v100.2c0 .6.5 1 1 1h73.4v58.5c0 .6.5 1 1 1h28.6c.6 0 1-.5 1-1V97.7c0-.6-.5-1-1-1h-28.6c-.6 0-1 .5-1 1v70.2H82V97.6c0-.6-.5-1-1-1H52.2zm1 2.1h26.7V169c0 .6.5 1 1 1h45.7c.6 0 1-.5 1-1V98.8h26.5v157.5h-26.5v-58.5c0-.6-.5-1-1-1H53.2v-27.6-.2-70.3z"/></g><g id="g4580_1_" transform="translate(471.395 -49.438)"><path id="path4582_1_" class="st12" d="M-42.2 108.4v100.2h74.4v59.6h28.6V108.5H32.2v71.3h-45.7v-71.4h-28.7z"/><path id="path4584_1_" class="st9" d="M-29.9 102v100.2h74.4v59.6h28.6V102.1H44.5v71.3H-1.1V102h-28.8z"/><path id="path4586_1_" class="st11" d="M-36.1 96.4c-.6 0-1 .5-1 1v100.2c0 .6.5 1 1 1h73.4v58.5c0 .6.5 1 1 1h28.6c.6 0 1-.5 1-1V97.5c0-.6-.5-1-1-1H38.3c-.6 0-1 .5-1 1v70.2H-6.3V97.4c0-.6-.5-1-1-1h-28.8zm1 2.1h26.7v70.3c0 .6.5 1 1 1h45.7c.6 0 1-.5 1-1V98.6h26.5v157.5H39.3v-58.5c0-.6-.5-1-1-1h-73.4V169v-.2-70.3z"/></g><path id="path4617_1_" class="st3" d="M356.3 181.1c-1.2 0-2.1.9-2.1 2.1 0 1.2.9 2.1 2.1 2.1h8.4c1.2 0 2.1.9 2.1 2.1 0 1.2-.9 2.1-2.1 2.1h-1.2c-1.2 0-2.1.9-2.1 2.1s.9 2.1 2.1 2.1h18.3c1.2 0 2.1-.9 2.1-2.1s-.9-2.1-2.1-2.1h-6.2c-1.2 0-2.1-.9-2.1-2.1 0-1.2.9-2.1 2.1-2.1H387c1.2 0 2.1-.9 2.1-2.1 0-1.2-.9-2.1-2.1-2.1h-30.7z"/></g></svg>