<?xml version="1.0" encoding="UTF-8"?><!DOCTYPE svg PUBLIC "-//W3C//DTD SVG 1.1//EN" "http://www.w3.org/Graphics/SVG/1.1/DTD/svg11.dtd"><svg xmlns="http://www.w3.org/2000/svg"><defs><clipPath id="a"><path transform="translate(.363 .923)" d="M0 0h25.637v25.637H0z"/></clipPath></defs><symbol id="arrow" viewBox="0 0 7 12"><path clip-rule="evenodd" d="M5.906 1.146L1.063 5.99l4.843 4.843"/></symbol><symbol id="balao" viewBox="0 0 24.8 40"><style>.st0{fill:none;stroke:#f74f11;stroke-width:1.5;stroke-linecap:round;stroke-linejoin:round}</style><path class="st0" d="M14 28h5c1.1 0 2-.9 2-2V14c0-1.1-.9-2-2-2H5c-1.1 0-2 .9-2 2v12c0 1.1.9 2 2 2h5l2 2 2-2z"/><path class="st0" d="M12.2 19.8c.1.1.1.3 0 .4s-.3.1-.4 0-.1-.3 0-.4c.1-.1.3-.1.4 0M16.2 19.8c.1.1.1.3 0 .4s-.3.1-.4 0-.1-.3 0-.4c.1-.1.3-.1.4 0M8.2 19.8c.1.1.1.3 0 .4s-.3.1-.4 0-.1-.3 0-.4c.1-.1.3-.1.4 0"/></symbol><symbol id="featured" viewBox="0 0 27 30"><path d="M22.806 0H4.378C2.386 0 .788 1.617.788 3.632v16.115a3.67 3.67 0 0 0 1.542 2.979l9.229 6.44a3.585 3.585 0 0 0 2.047.652c.701 0 1.43-.227 2.048-.652l9.228-6.44a3.671 3.671 0 0 0 1.543-2.98V3.633C26.397 1.617 24.798 0 22.806 0zm1.01 19.718c0 .312-.168.624-.42.823l-9.229 6.469a1.01 1.01 0 0 1-1.122 0L3.817 20.54a.998.998 0 0 1-.42-.823V3.632a1 1 0 0 1 .98-.993h18.457a1 1 0 0 1 .982.993v16.086z"/><path d="M19.244 10.895l-2.917-.426a.818.818 0 0 1-.645-.482L14.364 7.29a.853.853 0 0 0-1.543 0l-1.319 2.696c-.112.255-.364.425-.645.482l-2.917.426c-.701.113-.981.993-.477 1.475l2.132 2.1a.864.864 0 0 1 .253.765l-.505 2.951c-.112.71.617 1.248 1.234.908l2.608-1.39a.83.83 0 0 1 .814 0l2.609 1.39c.617.34 1.374-.199 1.234-.908l-.505-2.95a.864.864 0 0 1 .252-.767l2.132-2.099c.533-.51.224-1.362-.477-1.475z"/></symbol><symbol id="featuredNews" viewBox="0 0 25 30"><path d="M24.084 8.036L13.74.682a2.134 2.134 0 0 0-2.453 0L.916 8.036A2.213 2.213 0 0 0 0 9.86v17.23c0 .82.443 1.58 1.152 1.945.71.395 1.567.334 2.217-.152L12.5 22.38l9.131 6.503c.355.274.798.395 1.212.395.354 0 .68-.09 1.005-.243A2.215 2.215 0 0 0 25 27.09V9.86c0-.73-.325-1.398-.916-1.824zM12.5 2.931l10.018 7.11v7.416l-9.486-6.777c-.296-.213-.71-.213-1.034 0l-9.516 6.777v-7.415L12.5 2.93z"/></symbol><symbol id="fire" viewBox="0 0 30 36"><path d="M9.587 12.248l-.004.004-.003.003.007-.007zm15.998-.3a1.986 1.986 0 0 0-.37-.28 1.607 1.607 0 0 0-2.249.66 9.293 9.293 0 0 1-2.247 2.857A14.005 14.005 0 0 0 13.861.573a1.607 1.607 0 0 0-2.396 1.295 11.278 11.278 0 0 1-3.972 7.943l-.37.302a13.682 13.682 0 0 0-3.194 2.992 14.437 14.437 0 0 0 5.875 22.353 1.607 1.607 0 0 0 2.133-1.99 11.212 11.212 0 0 1-.305-4.148 14.47 14.47 0 0 0 6.931 6.455c.362.162.772.184 1.15.061a14.456 14.456 0 0 0 5.872-23.887zM19.309 32.57a11.194 11.194 0 0 1-5.748-7.075 14.336 14.336 0 0 1-.289-1.55 1.608 1.608 0 0 0-2.985-.581 14.397 14.397 0 0 0-1.937 7.582 11.227 11.227 0 0 1-1.89-15.86 10.534 10.534 0 0 1 2.511-2.343 1.2 1.2 0 0 0 .12-.088s.476-.394.492-.403a14.412 14.412 0 0 0 4.66-7.446 10.826 10.826 0 0 1 2.227 12.998 1.608 1.608 0 0 0 1.902 2.28 12.626 12.626 0 0 0 6.207-4.32 11.25 11.25 0 0 1-5.27 16.806z"/></symbol><symbol id="flipboard" viewBox="0 0 323.5 323.5"><path d="M0 0h323.5v323.5H0zm64.6 257.72l64.84 1.06v-64.63l64.4-.05.27-64.69h64.71l-.57-61.49H64.6z"/></symbol><symbol id="lastNews" viewBox="0 0 26 29"><path d="M22.442.64H3.168A3.174 3.174 0 0 0 0 3.81v17.288a3.174 3.174 0 0 0 3.168 3.168h7.114v2.389c0 .94.563 1.798 1.422 2.147.296.108.591.188.886.188.564 0 1.128-.214 1.584-.617l5.423-4.107h2.872a3.174 3.174 0 0 0 3.168-3.168V3.809C25.61 2.064 24.187.64 22.442.64zm.886 20.457a.894.894 0 0 1-.886.886h-3.248c-.241 0-.483.08-.698.241l-5.745 4.35a.582.582 0 0 0-.134.107s-.027 0-.054-.027v-2.39h1.692c.644 0 1.154-.51 1.154-1.154 0-.644-.51-1.154-1.154-1.154H3.168a.894.894 0 0 1-.886-.886V3.809c0-.484.403-.886.886-.886h19.274c.484 0 .886.402.886.886v17.288z"/><path d="M12.805 14.761c.752 0 1.37-.617 1.37-1.369V7.245c0-.752-.618-1.37-1.37-1.37-.752 0-1.369.618-1.369 1.37v6.147c0 .752.617 1.37 1.37 1.37zM12.805 18.976a1.664 1.664 0 1 0 0-3.329 1.664 1.664 0 0 0 0 3.33z"/></symbol><symbol id="moreLastNews" viewBox="0 0 26 27"><g clip-path="url(#a)"><path d="M17.825 11.903h-2.974V8.928c0-.919-.75-1.669-1.67-1.669-.918 0-1.668.75-1.668 1.67v2.974H8.538c-.92 0-1.669.75-1.669 1.669 0 .92.75 1.669 1.669 1.669h2.975v2.975c0 .919.75 1.668 1.669 1.668s1.668-.75 1.668-1.668V15.24h2.975c.92 0 1.67-.75 1.67-1.669 0-.92-.75-1.669-1.67-1.669z"/><path d="M13.182.923C6.119.923.363 6.679.363 13.74c0 7.063 5.756 12.819 12.819 12.819C20.244 26.56 26 20.804 26 13.74 26 6.68 20.244.923 13.182.923zm0 23.388c-5.83 0-10.57-4.74-10.57-10.57 0-5.828 4.74-10.569 10.57-10.569 5.828 0 10.569 4.74 10.569 10.57 0 5.828-4.74 10.569-10.57 10.569z"/></g></symbol><symbol id="play" viewBox="0 0 25 25"><path fill-rule="evenodd" clip-rule="evenodd" d="M10.06 15.775l5.196-3-5.196-3v6z" stroke-width="1.5" stroke-linecap="round" stroke-linejoin="round"/><path fill-rule="evenodd" clip-rule="evenodd" d="M7.558 3.775h9.004a4.496 4.496 0 0 1 4.496 4.496v9.01a4.496 4.496 0 0 1-4.496 4.494H7.554a4.496 4.496 0 0 1-4.496-4.496V8.275a4.5 4.5 0 0 1 4.5-4.5z" stroke-width="1.5" stroke-linecap="round" stroke-linejoin="round"/></symbol><symbol id="search" viewBox="0 0 21 21"><path d="M9.058 17.775a8 8 0 1 0 0-16 8 8 0 0 0 0 16zM19.058 19.775l-4.35-4.35" stroke-width="2" stroke-linecap="round" stroke-linejoin="round"/></symbol><symbol id="star" viewBox="0 0 30 29"><path fill-rule="evenodd" clip-rule="evenodd" d="M8.756 26.802a1.634 1.634 0 0 1-1.743-.116 1.675 1.675 0 0 1-.662-1.634l1.193-6.975-5.051-4.942a1.679 1.679 0 0 1-.411-1.706c.194-.602.71-1.04 1.329-1.131l6.983-1.018 3.12-6.352A1.661 1.661 0 0 1 15 2c.63 0 1.205.36 1.487.928l3.119 6.352 6.983 1.018c.62.091 1.135.53 1.33 1.13a1.679 1.679 0 0 1-.412 1.707l-5.054 4.94 1.193 6.974a1.675 1.675 0 0 1-.66 1.636 1.635 1.635 0 0 1-1.745.117l-6.244-3.29-6.241 3.29z" stroke="#FD6519" stroke-width="3" stroke-linecap="round" stroke-linejoin="round"/></symbol></svg>