<?xml version="1.0" encoding="utf-8"?>
<!-- Generator: Adobe Illustrator 25.1.0, SVG Export Plug-In . SVG Version: 6.00 Build 0)  -->
<svg version="1.1" id="Camada_1" xmlns="http://www.w3.org/2000/svg" xmlns:xlink="http://www.w3.org/1999/xlink" x="0px" y="0px"
	 viewBox="0 0 24.8 40" style="enable-background:new 0 0 24.8 40;" xml:space="preserve">
<style type="text/css">
	.st0{fill:none;stroke:#F74F11;stroke-width:1.5;stroke-linecap:round;stroke-linejoin:round;}
</style>
<path class="st0" d="M14,28h5c1.1,0,2-0.9,2-2V14c0-1.1-0.9-2-2-2H5c-1.1,0-2,0.9-2,2v12c0,1.1,0.9,2,2,2h5l2,2L14,28z"/>
<path class="st0" d="M12.2,19.8c0.1,0.1,0.1,0.3,0,0.4s-0.3,0.1-0.4,0s-0.1-0.3,0-0.4C11.9,19.7,12.1,19.7,12.2,19.8"/>
<path class="st0" d="M16.2,19.8c0.1,0.1,0.1,0.3,0,0.4s-0.3,0.1-0.4,0s-0.1-0.3,0-0.4C15.9,19.7,16.1,19.7,16.2,19.8"/>
<path class="st0" d="M8.2,19.8c0.1,0.1,0.1,0.3,0,0.4s-0.3,0.1-0.4,0s-0.1-0.3,0-0.4C7.9,19.7,8.1,19.7,8.2,19.8"/>
</svg>
