<svg width="27" height="30" viewBox="0 0 27 30" fill="none" xmlns="http://www.w3.org/2000/svg">
<path d="M22.8063 0H4.37791C2.38641 0 0.787598 1.61718 0.787598 3.63155V19.7466C0.787598 20.9382 1.37663 22.0447 2.33031 22.7256L11.5585 29.1659C12.1756 29.5915 12.8768 29.8185 13.6061 29.8185C14.3074 29.8185 15.0366 29.5915 15.6537 29.1659L24.882 22.7256C25.8356 22.0447 26.4247 20.9382 26.4247 19.7466V3.63155C26.3966 1.61718 24.7978 0 22.8063 0ZM23.8161 19.7182C23.8161 20.0303 23.6478 20.3424 23.3953 20.541L14.1671 27.0097C13.8305 27.2366 13.3817 27.2366 13.0451 27.0097L3.81692 20.541C3.56448 20.3707 3.39618 20.0587 3.39618 19.7182V3.63155C3.39618 3.09249 3.84497 2.63855 4.37791 2.63855H22.8344C23.3673 2.63855 23.8161 3.09249 23.8161 3.63155V19.7182Z" fill="#FD651A"/>
<path d="M19.2441 10.8947L16.327 10.4691C16.0465 10.4407 15.7941 10.2421 15.6819 9.98677L14.3636 7.29147C14.055 6.63893 13.1294 6.63893 12.8209 7.29147L11.5025 9.98677C11.3903 10.2421 11.1379 10.4123 10.8574 10.4691L7.94028 10.8947C7.23904 11.0081 6.95855 11.8877 7.46344 12.37L9.59518 14.4695C9.79153 14.6681 9.90373 14.9518 9.84763 15.2355L9.34274 18.1861C9.23054 18.8954 9.95983 19.4345 10.5769 19.094L13.1855 17.7038C13.4379 17.562 13.7465 17.562 13.9989 17.7038L16.6075 19.094C17.2246 19.4345 17.9819 18.8954 17.8417 18.1861L17.3368 15.2355C17.2807 14.9518 17.3929 14.6681 17.5892 14.4695L19.721 12.37C20.2539 11.8593 19.9454 11.0081 19.2441 10.8947Z" fill="#FD651A"/>
</svg>
