<svg width="25" height="30" viewBox="0 0 25 30" fill="none" xmlns="http://www.w3.org/2000/svg">
<path d="M24.0839 8.03617L13.7411 0.681958C13.0024 0.16534 12.0272 0.16534 11.2884 0.681958L0.916076 8.03617C0.325059 8.46162 0 9.13018 0 9.85953V27.0903C0 27.9108 0.443262 28.6705 1.15248 29.0352C1.8617 29.4302 2.71868 29.3695 3.36879 28.8832L12.5 22.3799L21.6312 28.8832C21.9858 29.1567 22.4291 29.2783 22.8428 29.2783C23.1974 29.2783 23.5225 29.1871 23.8475 29.0352C24.5567 28.6401 25 27.9108 25 27.0903V9.85953C25 9.13018 24.6749 8.46162 24.0839 8.03617ZM12.5 2.93077L22.5177 10.0419V17.4569L13.0319 10.68C12.7364 10.4673 12.3227 10.4673 11.9976 10.68L2.48227 17.4569V10.0419L12.5 2.93077Z" fill="#FD651A"/>
</svg>
