<svg width="30" height="36" viewBox="0 0 30 36" fill="none" xmlns="http://www.w3.org/2000/svg">
<path d="M9.5871 12.2485L9.58348 12.2515L9.58004 12.2548L9.5871 12.2485ZM25.5848 11.9488C25.473 11.841 25.3489 11.7467 25.2151 11.6678C25.0258 11.5564 24.8156 11.485 24.5976 11.458C24.3795 11.431 24.1583 11.449 23.9475 11.511C23.7367 11.5729 23.5408 11.6774 23.372 11.818C23.2032 11.9587 23.0651 12.1324 22.9661 12.3286C22.4125 13.4193 21.6489 14.39 20.7193 15.185C20.8615 14.384 20.9331 13.5721 20.9335 12.7586C20.9365 10.2838 20.2836 7.85232 19.0414 5.71185C17.7991 3.57139 16.0118 1.79834 13.8615 0.573232C13.6246 0.438951 13.3575 0.367051 13.0852 0.36428C12.8129 0.361509 12.5444 0.427957 12.3048 0.557388C12.0653 0.68682 11.8625 0.874993 11.7156 1.10425C11.5687 1.33351 11.4824 1.59633 11.4649 1.86806C11.3749 3.39191 10.9766 4.88164 10.2939 6.24699C9.61123 7.61233 8.65848 8.82487 7.49336 9.81114L7.12296 10.1125C5.90461 10.9323 4.82619 11.9429 3.92909 13.1055C2.53459 14.8622 1.56859 16.9198 1.10768 19.1149C0.646768 21.31 0.703631 23.5822 1.27376 25.7515C1.84388 27.9208 2.91159 29.9275 4.39221 31.6123C5.87283 33.2971 7.72564 34.6138 9.80369 35.4579C10.0477 35.5576 10.3125 35.5958 10.5747 35.569C10.8369 35.5421 11.0885 35.4512 11.3072 35.3042C11.526 35.1572 11.7052 34.9585 11.8291 34.7259C11.9529 34.4932 12.0176 34.2337 12.0175 33.9701C12.0163 33.7996 11.9893 33.6303 11.9374 33.4678C11.5779 32.1163 11.4743 30.7094 11.6322 29.3197C13.1529 32.188 15.594 34.4616 18.563 35.775C18.9254 35.9371 19.335 35.9589 19.7126 35.8362C22.0583 35.0791 24.1715 33.7347 25.8513 31.9309C27.5312 30.1271 28.7219 27.9237 29.3103 25.5301C29.8987 23.1364 29.8653 20.6321 29.2132 18.2551C28.5612 15.878 27.3121 13.7071 25.5848 11.9488ZM19.3092 32.5701C17.9083 31.8601 16.6725 30.8632 15.6821 29.6443C14.6918 28.4253 13.9691 27.0115 13.561 25.4949C13.4364 24.9842 13.34 24.4671 13.2722 23.9458C13.2263 23.6139 13.0778 23.3046 12.8475 23.0612C12.6172 22.8177 12.3165 22.6524 11.9876 22.5882C11.8863 22.5683 11.7832 22.5583 11.68 22.5584C11.3975 22.5583 11.12 22.6327 10.8754 22.7741C10.6309 22.9154 10.4279 23.1188 10.2871 23.3636C8.95356 25.6636 8.28295 28.2879 8.34953 30.9457C7.17671 30.0338 6.19652 28.8983 5.4658 27.6048C4.73508 26.3113 4.26834 24.8857 4.09265 23.4105C3.91695 21.9353 4.03579 20.4399 4.44228 19.011C4.84877 17.582 5.53482 16.248 6.46068 15.0862C7.16366 14.1731 8.01171 13.3815 8.97103 12.743C9.01257 12.7162 9.05241 12.6868 9.09031 12.6551C9.09031 12.6551 9.56714 12.2606 9.58344 12.2515C11.8731 10.3149 13.5017 7.71217 14.2421 4.80613C15.9932 6.42489 17.1608 8.57653 17.5637 10.9269C17.9665 13.2774 17.5821 15.695 16.47 17.8045C16.3231 18.086 16.2628 18.4047 16.2968 18.7204C16.3308 19.0361 16.4575 19.3347 16.661 19.5785C16.8644 19.8222 17.1355 20.0003 17.4401 20.0902C17.7446 20.18 18.069 20.1777 18.3722 20.0835C20.834 19.3118 23.0003 17.8044 24.5795 15.7643C25.5286 17.1662 26.1491 18.7642 26.3947 20.4392C26.6404 22.1142 26.5049 23.8231 25.9983 25.4385C25.4917 27.0539 24.6271 28.5342 23.4689 29.769C22.3108 31.0038 20.8889 31.9613 19.3092 32.5701L19.3092 32.5701Z" fill="#FD6519"/>
</svg>
