<svg width="26" height="29" viewBox="0 0 26 29" fill="none" xmlns="http://www.w3.org/2000/svg">
<path d="M22.4425 0.64093H3.16772C1.42279 0.64093 0 2.06372 0 3.80865V21.0969C0 22.8418 1.42279 24.2646 3.16772 24.2646H10.2817V26.6538C10.2817 27.5934 10.8454 28.4524 11.7045 28.8014C11.9998 28.9088 12.2951 28.9893 12.5904 28.9893C13.1541 28.9893 13.7178 28.7746 14.1742 28.3719L19.5969 24.2646H22.4693C24.2143 24.2646 25.6371 22.8418 25.6371 21.0969V3.80865C25.6102 2.06372 24.1874 0.64093 22.4425 0.64093ZM23.3284 21.0969C23.3284 21.5801 22.9257 21.9828 22.4425 21.9828H19.1942C18.9526 21.9828 18.711 22.0633 18.4963 22.2244L12.7514 26.5733C12.6977 26.6001 12.644 26.6538 12.6172 26.6807C12.6172 26.6807 12.5903 26.6807 12.5635 26.6538V24.2646H14.2547C14.899 24.2646 15.4091 23.7546 15.4091 23.1103C15.4091 22.466 14.899 21.9559 14.2547 21.9559H11.436H3.16772C2.68451 21.9559 2.28183 21.5533 2.28183 21.07V3.80865C2.28183 3.32544 2.68451 2.92276 3.16772 2.92276H22.4425C22.9257 2.92276 23.3284 3.32544 23.3284 3.80865V21.0969Z" fill="#FD651A"/>
<path d="M12.8051 14.7615C13.5568 14.7615 14.1742 14.144 14.1742 13.3924V7.24483C14.1742 6.49317 13.5568 5.87573 12.8051 5.87573C12.0535 5.87573 11.436 6.49317 11.436 7.24483V13.3924C11.436 14.144 12.0535 14.7615 12.8051 14.7615Z" fill="#FD651A"/>
<path d="M12.805 18.9761C13.7242 18.9761 14.4694 18.231 14.4694 17.3117C14.4694 16.3925 13.7242 15.6473 12.805 15.6473C11.8858 15.6473 11.1406 16.3925 11.1406 17.3117C11.1406 18.231 11.8858 18.9761 12.805 18.9761Z" fill="#FD651A"/>
</svg>
