<svg width="26" height="27" viewBox="0 0 26 27" fill="none" xmlns="http://www.w3.org/2000/svg">
<g clip-path="url(#clip0)">
<path d="M17.8254 11.9032H14.8505V8.92832C14.8505 8.00925 14.1007 7.25949 13.1817 7.25949C12.2626 7.25949 11.5128 8.00925 11.5128 8.92832V11.9032H8.53797C7.6189 11.9032 6.86914 12.6529 6.86914 13.572C6.86914 14.4911 7.6189 15.2408 8.53797 15.2408H11.5128V18.2157C11.5128 19.1348 12.2626 19.8845 13.1817 19.8845C14.1007 19.8845 14.8505 19.1348 14.8505 18.2157V15.2408H17.8254C18.7444 15.2408 19.4942 14.4911 19.4942 13.572C19.4942 12.6529 18.7444 11.9032 17.8254 11.9032Z" fill="#FD651A"/>
<path d="M13.1816 0.922791C6.11928 0.922791 0.363037 6.67904 0.363037 13.7413C0.363037 20.8036 6.11928 26.5599 13.1816 26.5599C20.2439 26.5599 26.0001 20.8036 26.0001 13.7413C26.0001 6.67904 20.2439 0.922791 13.1816 0.922791ZM13.1816 24.3106C7.35277 24.3106 2.61233 19.5701 2.61233 13.7413C2.61233 7.91252 7.35277 3.17208 13.1816 3.17208C19.0104 3.17208 23.7508 7.91252 23.7508 13.7413C23.7508 19.5701 19.0104 24.3106 13.1816 24.3106Z" fill="#FD651A"/>
</g>
<defs>
<clipPath id="clip0">
<rect width="25.6371" height="25.6371" fill="white" transform="translate(0.363037 0.922791)"/>
</clipPath>
</defs>
</svg>
