<svg width="30" height="29" viewBox="0 0 30 29" fill="none" xmlns="http://www.w3.org/2000/svg">
<path fill-rule="evenodd" clip-rule="evenodd" d="M8.75602 26.8018C8.20081 27.1028 7.52442 27.0577 7.01312 26.6857C6.50182 26.3136 6.24499 25.6797 6.35132 25.0521L7.54405 18.0769L2.4928 13.1347C2.04637 12.691 1.88711 12.0301 2.0817 11.4287C2.27629 10.8273 2.79115 10.3891 3.41071 10.2977L10.394 9.27981L13.5132 2.92812C13.795 2.35926 14.3705 2 15 2C15.6295 2 16.205 2.35926 16.4868 2.92812L19.606 9.27981L26.5893 10.2977C27.2089 10.3891 27.7237 10.8273 27.9183 11.4287C28.1129 12.0301 27.9536 12.691 27.5072 13.1347L22.4532 18.0741L23.6459 25.0493C23.7535 25.6774 23.4972 26.3124 22.9857 26.6852C22.4741 27.058 21.7969 27.1033 21.2412 26.8018L14.9973 23.5121L8.75602 26.8018Z" stroke="#FD6519" stroke-width="3" stroke-linecap="round" stroke-linejoin="round"/>
</svg>