<?xml version="1.0" encoding="utf-8"?>
<svg version="1.1"
	 id="svg2" xmlns:cc="http://creativecommons.org/ns#" xmlns:dc="http://purl.org/dc/elements/1.1/" xmlns:inkscape="http://www.inkscape.org/namespaces/inkscape" xmlns:rdf="http://www.w3.org/1999/02/22-rdf-syntax-ns#" xmlns:sodipodi="http://sodipodi.sourceforge.net/DTD/sodipodi-0.dtd" xmlns:svg="http://www.w3.org/2000/svg"
	 xmlns="http://www.w3.org/2000/svg" xmlns:xlink="http://www.w3.org/1999/xlink" x="0px" y="0px" viewBox="0 0 595.3 330.9"
	 style="enable-background:new 0 0 595.3 330.9;" width="595" height="330" xml:space="preserve">
<style type="text/css">
	.st0{filter:url(#filter4180);}
	.st1{fill:#FFEFE8;}
	.st2{fill:#FFE0D1;}
	.st3{fill:#FD8447;}
	.st4{fill:#FFFFFF;}
	.st5{fill:#212121;}
	.st6{fill:#303030;}
	.st7{fill:none;stroke:#333333;stroke-width:2.4;stroke-linecap:round;stroke-linejoin:round;stroke-miterlimit:3.2;}
	.st8{fill:#FEA375;}
	.st9{fill:#FED8C5;}
	.st10{fill:#E8FBEB;}
	.st11{fill:#FD6519;}
	.st12{fill:#FEB28C;}
</style>
<filter  id="filter4180" inkscape:collect="always" style="color-interpolation-filters:sRGB">
	<feBlend  id="feBlend4182" in2="BackgroundImage" inkscape:collect="always" mode="screen"></feBlend>
</filter>
<sodipodi:namedview  bordercolor="#666666" borderopacity="1.0" id="base" inkscape:current-layer="layer1" inkscape:cx="381.59563" inkscape:cy="397.19853" inkscape:document-units="px" inkscape:object-nodes="true" inkscape:object-paths="true" inkscape:pageopacity="0.0" inkscape:pageshadow="2" inkscape:snap-global="false" inkscape:snap-intersection-paths="true" inkscape:window-height="705" inkscape:window-maximized="1" inkscape:window-width="1366" inkscape:window-x="-8" inkscape:window-y="-8" inkscape:zoom="0.7" pagecolor="#ffffff" showgrid="false">
	</sodipodi:namedview>
<g id="layer1" inkscape:groupmode="layer" inkscape:label="Layer 1" class="st0">
	
		<path id="path4532_1_" inkscape:connector-curvature="0" inkscape:export-filename="E:\element\404-ijo.png" inkscape:export-xdpi="138.27602" inkscape:export-ydpi="138.27602" sodipodi:nodetypes="sssss" class="st1" d="
		M496.2,124.3C509.9,205,466.5,354,317,289.7c-69.4-29.8-206.6,26.2-220.4-54.5s15-160.8,153-193.5S482.4,43.6,496.2,124.3
		L496.2,124.3z"/>
	
		<path id="path4566_1_" inkscape:export-filename="E:\element\404-ijo.png" inkscape:export-xdpi="138.27602" inkscape:export-ydpi="138.27602" class="st2" d="
		M224.6,139.5l-78,139.5c49.9,8.6,124.8-8.9,170.3,10.7c16.7,7.2,32,11.7,46.1,13.9l10.2-132.4L224.6,139.5z"/>
	
		<path id="path4635_1_" inkscape:connector-curvature="0" inkscape:export-filename="E:\element\404-ijo.png" inkscape:export-xdpi="138.27602" inkscape:export-ydpi="138.27602" sodipodi:nodetypes="sssssssssssssssssss" class="st3" d="
		M206.7,136.1c-1.4,0-2.5,1.1-2.5,2.5s1.1,2.5,2.5,2.5h10.1c1.4,0,2.5,1.1,2.5,2.5s-1.1,2.5-2.5,2.5h-1.5c-1.4,0-2.5,1.1-2.5,2.5
		s1.1,2.5,2.5,2.5h22c1.4,0,2.5-1.1,2.5-2.5s-1.1-2.5-2.5-2.5h-7.5c-1.4,0-2.5-1.1-2.5-2.5s1.1-2.5,2.5-2.5h13.7
		c1.4,0,2.5-1.1,2.5-2.5s-1.1-2.5-2.5-2.5H206.7z"/>
	
		<path id="path4588_1_" inkscape:export-filename="E:\element\404-ijo.png" inkscape:export-xdpi="138.27602" inkscape:export-ydpi="138.27602" class="st4" d="
		M252.3,145.5l-60.2,136c4.5-0.1,9.2-0.2,13.8-0.3l60.2-128.6L252.3,145.5z M276.1,150.5l-62.3,130.3c2.5-0.1,5-0.2,7.5-0.3
		l61.1-128.7L276.1,150.5z M316.6,159.2l-43.4,121.4c2.2,0.1,4.3,0.3,6.4,0.5l42.8-120.7L316.6,159.2z"/>
	
		<path id="rect4406_1_" inkscape:connector-curvature="0" inkscape:export-filename="E:\element\404-ijo.png" inkscape:export-xdpi="138.27602" inkscape:export-ydpi="138.27602" sodipodi:nodetypes="ssssssssssssssssssssssssss" class="st3" d="
		M335.1,43.6c-1.5,0-2.7,1.2-2.7,2.7c0,1.5,1.2,2.7,2.7,2.7h34.6c1.5,0,2.7,1.2,2.7,2.7s-1.2,2.7-2.7,2.7h-40
		c-1.5,0-2.7,1.2-2.7,2.7c0,1.5,1.2,2.7,2.7,2.7h55.5c1.5,0,2.7-1.2,2.7-2.7s-1.2-2.7-2.7-2.7h-1.6c-1.5,0-2.7-1.2-2.7-2.7
		s1.2-2.7,2.7-2.7h10.7c1.5,0,2.7-1.2,2.7-2.7c0-1.5-1.2-2.7-2.7-2.7H335.1z M401.3,43.6c-1.5,0-2.7,1.2-2.7,2.7
		c0,1.5,1.2,2.7,2.7,2.7h1.4c1.5,0,2.7-1.2,2.7-2.7c0-1.5-1.2-2.7-2.7-2.7H401.3z"/>
	
		<g id="g4535_1_" transform="translate(16.162441,-71.72083)" inkscape:export-filename="E:\element\404-ijo.png" inkscape:export-xdpi="138.27602" inkscape:export-ydpi="138.27602">
		<g id="g4435_1_" transform="matrix(0.97624074,0.21668877,-0.21668877,0.97624074,23.238893,-205.42708)">
			<path id="path4250_1_" inkscape:connector-curvature="0" class="st5" d="M347.2,391.1c-44.5,0-80.5-28-80.5-62.6
				c0.1-5.4,1-10.7,2.8-15.9c22.8-6,49.9-9.2,77.7-9.2c27.9,0,55,3.3,77.8,9.3c1.8,5.2,2.7,10.5,2.7,15.8
				C427.7,363,391.7,391.1,347.2,391.1C347.2,391.1,347.2,391.1,347.2,391.1L347.2,391.1z"/>
			<path id="path4390_1_" inkscape:connector-curvature="0" class="st6" d="M370.3,304.1c6.1,10.9,9.3,23.2,9.3,35.8
				c0,18.9-7.2,37-20.1,50.4c39.2-4.7,68.2-31,68.2-61.9c0-5.3-1-10.6-2.7-15.8C408.7,308.3,390,305.4,370.3,304.1z"/>
			<path id="path4289_1_" inkscape:connector-curvature="0" class="st7" d="M347.2,391.1c-44.5,0-80.5-28-80.5-62.6
				c0.1-5.4,1-10.7,2.8-15.9c22.8-6,49.9-9.2,77.7-9.2c27.9,0,55,3.3,77.8,9.3c1.8,5.2,2.7,10.5,2.7,15.8
				C427.7,363,391.7,391.1,347.2,391.1C347.2,391.1,347.2,391.1,347.2,391.1L347.2,391.1z"/>
			<path id="path4252_1_" inkscape:connector-curvature="0" sodipodi:nodetypes="ccccccsccsccccc" class="st1" d="M252.4,320
				L252.4,320C252.4,320.1,252.4,320.1,252.4,320L252.4,320z M252.4,320.1l-4.7,2.2c0,20.4,47.4,44.7,100.1,44.7
				c52.7,0,100.1-24.3,100.1-44.7c1.4-4-4.1-0.3-4.7-2.3c0,20.4-42.7,36.9-95.4,36.9C295.1,357,252.4,340.5,252.4,320.1L252.4,320.1
				z M443.2,320C443.2,320.1,443.3,320.1,443.2,320L443.2,320L443.2,320z"/>
			
				<ellipse id="ellipse4254_1_" transform="matrix(2.736929e-06 1 -1 2.736929e-06 667.9388 -27.6853)" class="st3" cx="347.8" cy="320.1" rx="38.7" ry="100.3"/>
			<path id="ellipse4383_1_" inkscape:connector-curvature="0" class="st8" d="M370.2,282.4c8.8,10.6,13.5,22.6,13.5,34.7
				c0,14.8-7,29.2-19.8,41.3c48.5-3,84.2-19.2,84.3-38.2C448.1,302.1,415.7,286.4,370.2,282.4z"/>
			<path id="path4268_1_" inkscape:connector-curvature="0" class="st7" d="M347.8,281.4c-55.4,0-100.3,17.3-100.3,38.7
				c0,0.7,0.1,1.5,0.2,2.2l0,0c0,20.4,47.4,44.7,100.1,44.7s100.1-24.3,100.1-44.7c0.3-0.8,0.3-1.3,0.1-1.6c0-0.2,0.1-0.5,0.1-0.7
				C448.1,298.7,403.2,281.4,347.8,281.4z"/>
			<path id="path4256_1_" inkscape:connector-curvature="0" class="st9" d="M347.2,243c-32.5,0-58.9,26.4-58.9,58.9
				c0,5,0.7,10,2,14.9c16.6,5.6,36.5,8.7,56.8,8.7c20.4,0,40.2-3.1,56.9-8.7c1.3-4.8,2-9.8,2-14.8C406.1,269.4,379.7,243,347.2,243
				C347.2,243,347.2,243,347.2,243z"/>
			<path id="path4412_1_" inkscape:connector-curvature="0" class="st10" d="M356.6,243.8c8.2,14.2,12.5,30.9,12.5,48.1
				c0,11.3-1.9,22.4-5.5,32.8c14.6-1.2,28.4-3.9,40.5-8c1.3-4.8,2-9.8,2-14.8C406.1,273,385.1,248.4,356.6,243.8z"/>
			<path id="path4287_1_" inkscape:connector-curvature="0" class="st7" d="M347.2,243c-32.5,0-58.9,26.4-58.9,58.9
				c0,5,0.7,10,2,14.9c16.6,5.6,36.5,8.7,56.8,8.7c20.4,0,40.2-3.1,56.9-8.7c1.3-4.8,2-9.8,2-14.8C406.1,269.4,379.7,243,347.2,243
				C347.2,243,347.2,243,347.2,243z"/>
			<path id="path4310_1_" inkscape:connector-curvature="0" class="st3" d="M289.3,366.5c-3,0-5.1,1.1-5.6,2.8
				c-0.8,2.8,2.8,6.5,8,8.2c5.2,1.8,10.1,0.9,11-1.9c0.8-2.8-2.8-6.5-8-8.2c0,0,0,0,0,0C292.9,366.8,291,366.5,289.3,366.5z
				 M405.1,366.5c-1.7,0-3.5,0.3-5.4,0.9c-5.2,1.8-8.8,5.5-8,8.2c0,0,0,0,0,0c0.8,2.8,5.7,3.6,11,1.9c5.2-1.8,8.8-5.5,8-8.2
				C410.2,367.5,408.1,366.5,405.1,366.5z M346.8,376.1c-5.5,0-10,2.2-10,5c0,2.7,4.5,5,10,5c5.5,0,10-2.2,10-5
				C356.8,378.3,352.4,376.1,346.8,376.1z"/>
			<path id="path4317_1_" inkscape:connector-curvature="0" class="st7" d="M289.3,366.5c-3,0-5.1,1.1-5.6,2.8
				c-0.8,2.8,2.8,6.5,8,8.2c5.2,1.8,10.1,0.9,11-1.9c0.8-2.8-2.8-6.5-8-8.2c0,0,0,0,0,0C292.9,366.8,291,366.5,289.3,366.5z
				 M405.1,366.5c-1.7,0-3.5,0.3-5.4,0.9c-5.2,1.8-8.8,5.5-8,8.2c0,0,0,0,0,0c0.8,2.8,5.7,3.6,11,1.9c5.2-1.8,8.8-5.5,8-8.2
				C410.2,367.5,408.1,366.5,405.1,366.5z M346.8,376.1c-5.5,0-10,2.2-10,5c0,2.7,4.5,5,10,5c5.5,0,10-2.2,10-5
				C356.8,378.3,352.4,376.1,346.8,376.1z"/>
			<path id="path4367_1_" inkscape:connector-curvature="0" class="st1" d="M274.1,311.4c-3.6,0-6.4,2.9-6.4,6.4c0,0,0,0,0,0
				c0,3.6,2.9,6.4,6.4,6.4c3.6,0,6.4-2.9,6.4-6.4C280.5,314.3,277.6,311.4,274.1,311.4C274.1,311.4,274.1,311.4,274.1,311.4z
				 M423.6,311.4c-3.6,0-6.4,2.9-6.4,6.4c0,0,0,0,0,0c0,3.6,2.9,6.4,6.4,6.4c3.6,0,6.4-2.9,6.4-6.4c0,0,0,0,0,0
				C430,314.3,427.1,311.4,423.6,311.4C423.6,311.4,423.6,311.4,423.6,311.4z M303.5,329.7c-3.6,0-6.4,2.9-6.4,6.4c0,0,0,0,0,0
				c0,3.6,2.9,6.4,6.4,6.4c3.6,0,6.4-2.9,6.4-6.4C309.9,332.6,307,329.7,303.5,329.7C303.5,329.7,303.5,329.7,303.5,329.7z
				 M395.5,329.7c-3.6,0-6.4,2.9-6.4,6.4c0,0,0,0,0,0c0,3.6,2.9,6.4,6.4,6.4c3.6,0,6.4-2.9,6.4-6.4
				C401.9,332.6,399,329.7,395.5,329.7C395.5,329.7,395.5,329.7,395.5,329.7z M348.3,336c-3.6,0-6.4,2.9-6.4,6.4c0,0,0,0,0,0
				c0,3.6,2.9,6.4,6.4,6.4c0,0,0,0,0,0c3.6,0,6.4-2.9,6.4-6.4c0,0,0,0,0,0C354.8,338.9,351.9,336,348.3,336z"/>
			<path id="path4347_1_" inkscape:connector-curvature="0" class="st7" d="M274.1,311.4c-3.6,0-6.4,2.9-6.4,6.4c0,0,0,0,0,0
				c0,3.6,2.9,6.4,6.4,6.4c3.6,0,6.4-2.9,6.4-6.4C280.5,314.3,277.6,311.4,274.1,311.4C274.1,311.4,274.1,311.4,274.1,311.4z
				 M423.6,311.4c-3.6,0-6.4,2.9-6.4,6.4c0,0,0,0,0,0c0,3.6,2.9,6.4,6.4,6.4c3.6,0,6.4-2.9,6.4-6.4c0,0,0,0,0,0
				C430,314.3,427.1,311.4,423.6,311.4C423.6,311.4,423.6,311.4,423.6,311.4z M303.5,329.7c-3.6,0-6.4,2.9-6.4,6.4c0,0,0,0,0,0
				c0,3.6,2.9,6.4,6.4,6.4c3.6,0,6.4-2.9,6.4-6.4C309.9,332.6,307,329.7,303.5,329.7C303.5,329.7,303.5,329.7,303.5,329.7z
				 M395.5,329.7c-3.6,0-6.4,2.9-6.4,6.4c0,0,0,0,0,0c0,3.6,2.9,6.4,6.4,6.4c3.6,0,6.4-2.9,6.4-6.4
				C401.9,332.6,399,329.7,395.5,329.7C395.5,329.7,395.5,329.7,395.5,329.7z M348.3,336c-3.6,0-6.4,2.9-6.4,6.4c0,0,0,0,0,0
				c0,3.6,2.9,6.4,6.4,6.4c0,0,0,0,0,0c3.6,0,6.4-2.9,6.4-6.4c0,0,0,0,0,0C354.8,338.9,351.9,336,348.3,336z"/>
		</g>
		<path id="path4453_1_" inkscape:connector-curvature="0" class="st5" d="M277.5,251.6c-43.4-9.6-72.5-44.8-65-78.6
			c1.2-5.2,3.3-10.2,6.2-14.9c23.5-0.9,50.7,1.8,77.9,7.8c27.2,6.1,53,15.1,73.9,25.9c0.6,5.4,0.4,10.8-0.8,16
			C362.2,241.6,320.9,261.2,277.5,251.6C277.5,251.6,277.5,251.6,277.5,251.6z"/>
		<path id="path4455_1_" inkscape:connector-curvature="0" class="st6" d="M318.8,171.7c3.6,11.9,4.1,24.7,1.4,36.9
			c-4.1,18.4-15.1,34.5-30.5,44.8c39.3,3.9,73.3-15.5,80-45.6c1.1-5.2,1.4-10.6,0.8-16C355.4,184.1,337.7,177.2,318.8,171.7z"/>
		<path id="path4457_1_" inkscape:connector-curvature="0" class="st11" d="M236.9,156.9c-6.3-0.2-12.5-0.2-18.4,0
			c-0.4,0-0.8,0.2-1,0.6c-2.9,4.8-5.1,9.9-6.3,15.2c0,0,0,0,0,0c-3.8,17.3,1.7,34.9,13.7,49.4c12,14.5,30.3,25.8,52.3,30.7
			c21.9,4.9,43.4,2.4,60.3-5.7s29.4-21.7,33.3-39c0,0,0,0,0,0c1.1-5.3,1.4-10.9,0.8-16.4c0-0.4-0.3-0.7-0.6-0.9
			c-21-10.9-46.9-19.9-74.2-26c0,0,0,0,0,0C276.3,160.2,255.9,157.6,236.9,156.9L236.9,156.9z M236.9,159.3
			c18.8,0.7,39.1,3.3,59.4,7.8c26.8,6,52.3,14.9,73,25.5c0.5,5.1,0.3,10.1-0.8,15c-3.7,16.5-15.5,29.5-32,37.3
			c-16.4,7.8-37.3,10.3-58.8,5.5c-21.5-4.8-39.4-15.8-50.9-29.8c-11.6-14-16.8-30.8-13.2-47.3c0,0,0,0,0,0c1.1-4.9,3.1-9.6,5.7-13.9
			C225,159.1,230.8,159.1,236.9,159.3L236.9,159.3z"/>
		<path id="path4459_1_" inkscape:connector-curvature="0" sodipodi:nodetypes="ccccccsccsccccc" class="st1" d="M200.3,161.7
			L200.3,161.7C200.3,161.7,200.3,161.7,200.3,161.7L200.3,161.7z M200.2,161.8l-5.1,1.2c-4.4,19.9,36.6,54,88.1,65.4
			c51.5,11.4,103-2,107.4-21.9c2.3-3.6-3.9-1.2-4.1-3.2c-4.4,19.9-49.7,26.7-101.2,15.3C234,207,195.8,181.7,200.2,161.8
			L200.2,161.8z M386.6,203C386.6,203.1,386.6,203.1,386.6,203L386.6,203L386.6,203z"/>
		
			<ellipse id="ellipse4461_1_" transform="matrix(0.2167 -0.9762 0.9762 0.2167 51.712 429.372)" class="st3" cx="293.4" cy="182.5" rx="38.7" ry="100.3"/>
		<path id="path4463_1_" inkscape:connector-curvature="0" class="st8" d="M323.4,150.5c6.3,12.3,8.2,24.9,5.6,36.8
			c-3.2,14.4-13.1,27-28.3,36c48.1,7.6,86.4-0.5,90.5-19.1C395.2,186.6,367,164.3,323.4,150.5L323.4,150.5z"/>
		<path id="path4465_1_" inkscape:connector-curvature="0" class="st11" d="M254.1,137.6c-8.8-0.1-16.9,0.4-24.2,1.5
			c-9.7,1.5-17.9,4-24.1,7.5s-10.3,8.2-11.5,13.8c0,0,0,0,0,0c-0.1,0.7-0.2,1.3-0.3,2c0,0.1,0,0.1-0.1,0.2
			c-1.2,5.4,0.7,11.6,4.8,17.9c4.1,6.3,10.5,12.9,18.7,19.2c16.3,12.6,39.5,24,65.4,29.7c25.9,5.8,51.8,5.2,71.9,0.8
			c10-2.2,18.6-5.5,25-9.4c6.3-3.9,10.6-8.6,11.9-14c0.3-0.6,0.5-1.1,0.5-1.7c0.1-0.2,0.2-0.4,0.2-0.6c0,0,0-0.1,0-0.1
			c1.3-5.6-0.5-11.6-4.6-17.4c-4.1-5.8-10.4-11.5-18.6-17c-16.4-10.9-40-20.6-67.2-26.6C285.1,139.7,268.8,137.8,254.1,137.6
			L254.1,137.6z M254.1,140c14.4,0.2,30.6,2,47.4,5.8c26.9,6,50.3,15.6,66.4,26.3c8,5.3,14.2,10.9,18,16.4
			c3.8,5.4,5.3,10.6,4.2,15.4c-0.1,0.2-0.1,0.3-0.2,0.5c-0.1,0.3-0.1,0.6,0,0.9c-0.1-0.2,0.1-0.2-0.3,0.4c-0.1,0.1-0.1,0.2-0.2,0.4
			c-1,4.5-4.8,8.9-10.9,12.7c-6.1,3.8-14.4,6.9-24.3,9.1c-19.7,4.4-45.3,4.9-70.8-0.8c-25.5-5.7-48.5-17-64.5-29.3
			c-8-6.2-14.2-12.6-18.1-18.6c-3.9-5.9-5.4-11.4-4.5-15.9c0-0.1,0.1-0.2,0.1-0.4c0-0.7,0.1-1.3,0.3-2c0,0,0,0,0,0
			c1.1-4.8,4.6-8.9,10.4-12.2c5.8-3.3,13.7-5.8,23.2-7.2C237.4,140.5,245.5,139.9,254.1,140L254.1,140z"/>
		<path id="path4467_1_" inkscape:connector-curvature="0" class="st9" d="M309.6,107.1c-31.7-7-63.2,13-70.2,44.7
			c-1.1,4.9-1.5,10-1.2,15c15,9.1,33.7,16.4,53.6,20.8c19.9,4.4,39.9,5.7,57.4,3.8c2.3-4.4,4-9.2,5.2-14.1
			C361.3,145.5,341.3,114.1,309.6,107.1C309.6,107.1,309.6,107.1,309.6,107.1L309.6,107.1z"/>
		<path id="path4469_1_" inkscape:connector-curvature="0" class="st4" d="M320.6,120.4c4,12,4.5,25.3,1.5,38.1
			c-2,8.4-5.5,16.5-10.2,23.7c11.8,1.5,23.3,1.8,33.7,0.7c1.9-3.4,3.3-7,4.2-10.8C354.8,150.5,342.5,128.6,320.6,120.4z"/>
		<path id="path4471_1_" inkscape:connector-curvature="0" class="st11" d="M297.8,104.5c-27.9-0.5-53.3,18.7-59.6,47c0,0,0,0,0,0
			c-1.1,5-1.5,10.2-1.3,15.3c0,0.4,0.2,0.8,0.6,1c15.2,9.2,34,16.5,54,20.9c0,0,0,0,0,0c20,4.4,40.2,5.8,57.8,3.8
			c0.4,0,0.7-0.3,0.9-0.6c2.4-4.5,4.1-9.4,5.3-14.4c0,0,0,0,0,0c7.2-32.4-13.2-64.5-45.6-71.6C305.8,105,301.7,104.5,297.8,104.5
			L297.8,104.5z M297.7,106.9c3.8,0.1,7.7,0.5,11.6,1.4c31.1,6.9,50.7,37.7,43.8,68.8c-1,4.6-2.7,9-4.8,13.2
			c-17.2,1.8-36.8,0.5-56.3-3.8h0c-19.5-4.3-37.8-11.4-52.6-20.3c-0.2-4.7,0.2-9.4,1.2-14l0,0c0,0,0,0,0,0
			C246.6,124.8,270.9,106.4,297.7,106.9L297.7,106.9z"/>
		<path id="path4473_1_" inkscape:connector-curvature="0" class="st3" d="M226.3,215c-2.9-0.6-5.2-0.1-6.1,1.5
			c-1.4,2.6,1.3,6.9,6,9.8c4.7,2.9,9.7,3.1,11.1,0.5c1.4-2.6-1.3-6.9-6-9.8c0,0,0,0,0,0C229.7,216.1,227.9,215.4,226.3,215
			L226.3,215z M339.3,240.1c-1.6-0.4-3.5-0.5-5.4-0.3c-5.5,0.6-9.8,3.4-9.6,6.3c0,0,0,0,0,0c0.2,2.9,4.8,4.8,10.3,4.2
			c5.5-0.6,9.8-3.4,9.6-6.3C344.1,242.3,342.3,240.8,339.3,240.1L339.3,240.1z M280.3,236.9c-5.4-1.2-10.3,0-10.9,2.7
			c-0.6,2.7,3.3,5.8,8.7,7c5.4,1.2,10.3,0,10.9-2.7C289.6,241.2,285.7,238.1,280.3,236.9L280.3,236.9z"/>
		<path id="path4475_1_" inkscape:connector-curvature="0" class="st11" d="M224.3,213.6c-0.7,0-1.4,0.1-2.1,0.2
			c-1.3,0.3-2.4,1-3,2.2c-1,1.8-0.5,4,0.8,6c1.2,2,3.2,3.9,5.7,5.4c2.5,1.5,5.1,2.4,7.4,2.5c2.3,0.1,4.4-0.6,5.4-2.4
			c1-1.8,0.5-4-0.8-6s-3.2-3.9-5.7-5.4c-1.7-1.1-3.6-1.8-5.4-2.2C225.8,213.7,225,213.6,224.3,213.6z M222.8,216.1
			c0.8-0.2,1.9-0.2,3.3,0.1c1.5,0.3,3.1,1,4.7,1.9c2.2,1.3,4,3,4.9,4.6c1,1.6,1.1,2.8,0.7,3.6c-0.4,0.7-1.4,1.2-3.2,1.1
			c-1.7-0.1-4-0.8-6.2-2.1c-2.2-1.3-4-3-4.9-4.6c-1-1.6-1.1-2.8-0.7-3.6C221.5,216.7,222,216.3,222.8,216.1L222.8,216.1z
			 M276.5,235.2c-1.3,0-2.5,0.1-3.6,0.4c-2.2,0.5-4.1,1.7-4.5,3.7c-0.4,2,0.8,3.8,2.5,5.3c1.8,1.4,4.2,2.6,7.1,3.2
			c2.9,0.6,5.6,0.7,7.8,0.1c2.2-0.5,4.1-1.7,4.5-3.7c0,0,0,0,0,0c0.4-2-0.8-3.8-2.5-5.2s-4.2-2.6-7.1-3.2
			C279.2,235.4,277.8,235.2,276.5,235.2L276.5,235.2z M276.4,237.6c1.1,0,2.4,0.2,3.6,0.4c2.5,0.6,4.7,1.6,6.1,2.7
			c1.4,1.1,1.8,2.2,1.7,2.9c-0.2,0.7-1,1.5-2.7,1.9c-1.7,0.4-4.1,0.4-6.7-0.1c-2.5-0.6-4.7-1.6-6.1-2.7s-1.8-2.2-1.7-2.9
			c0.2-0.7,1-1.5,2.7-1.9C274.2,237.7,275.3,237.6,276.4,237.6z M336.8,238.6c-1,0-2,0-3,0.1c-2.9,0.3-5.5,1.2-7.5,2.5
			c-1.9,1.3-3.4,3-3.2,5.1c0.1,2.1,1.8,3.6,3.9,4.4s4.8,1.2,7.7,0.9c2.9-0.3,5.5-1.2,7.5-2.5s3.4-3,3.2-5.1
			c-0.1-1.3-0.8-2.4-1.8-3.2s-2.4-1.4-4-1.8C338.7,238.7,337.8,238.6,336.8,238.6z M336.7,241c0.9,0,1.7,0.1,2.4,0.3
			c1.3,0.3,2.3,0.8,3,1.3c0.6,0.5,0.9,1,0.9,1.5c0.1,0.8-0.6,1.9-2.1,2.9c-1.5,1-3.8,1.8-6.4,2.1c-2.6,0.3-4.9,0-6.6-0.7
			c-1.6-0.7-2.4-1.5-2.4-2.4c-0.1-0.8,0.6-1.9,2.1-2.9c1.5-1,3.8-1.8,6.4-2.1C334.9,241,335.8,240.9,336.7,241L336.7,241z"/>
		<path id="path4477_1_" inkscape:connector-curvature="0" class="st1" d="M223.3,158c-3.5-0.8-6.9,1.4-7.7,4.9c0,0,0,0,0,0
			c-0.8,3.5,1.4,6.9,4.9,7.7c3.5,0.8,6.9-1.4,7.7-4.9C229,162.2,226.8,158.8,223.3,158C223.3,158,223.3,158,223.3,158L223.3,158z
			 M369.3,190.4c-3.5-0.8-6.9,1.4-7.7,4.9c0,0,0,0,0,0c-0.8,3.5,1.4,6.9,4.9,7.7c3.5,0.8,6.9-1.4,7.7-4.9c0,0,0,0,0,0
			C374.9,194.6,372.7,191.2,369.3,190.4C369.3,190.4,369.3,190.4,369.3,190.4L369.3,190.4z M248.1,182.2c-3.5-0.8-6.9,1.4-7.7,4.9
			c0,0,0,0,0,0c-0.8,3.5,1.4,6.9,4.9,7.7c3.5,0.8,6.9-1.4,7.7-4.9C253.7,186.4,251.5,183,248.1,182.2
			C248.1,182.2,248.1,182.2,248.1,182.2z M337.9,202.2c-3.5-0.8-6.9,1.4-7.7,4.9c0,0,0,0,0,0c-0.8,3.5,1.4,6.9,4.9,7.7
			c3.5,0.8,6.9-1.4,7.7-4.9C343.5,206.4,341.4,202.9,337.9,202.2C337.9,202.2,337.9,202.2,337.9,202.2L337.9,202.2z M290.5,198.1
			c-3.5-0.8-6.9,1.4-7.7,4.9c0,0,0,0,0,0c-0.8,3.5,1.4,6.9,4.9,7.7c0,0,0,0,0,0c3.5,0.8,6.9-1.4,7.7-4.9c0,0,0,0,0,0
			C296.2,202.3,294,198.9,290.5,198.1L290.5,198.1z"/>
		<path id="path4479_1_" inkscape:connector-curvature="0" class="st11" d="M220.5,156.8c-2.9,0.5-5.4,2.8-6.1,5.8
			c-0.9,4.1,1.7,8.2,5.8,9.1c4.1,0.9,8.2-1.7,9.1-5.8c0.9-4.1-1.7-8.2-5.8-9.1C222.5,156.6,221.5,156.6,220.5,156.8L220.5,156.8z
			 M221,159.1c0.7-0.1,1.4-0.1,2.1,0c2.8,0.6,4.6,3.4,4,6.2c-0.6,2.8-3.4,4.6-6.2,4v0c-2.8-0.6-4.6-3.4-4-6.2
			C217.3,161,219,159.5,221,159.1L221,159.1z M245.3,181c-2.9,0.5-5.4,2.8-6.1,5.9c-0.9,4.1,1.7,8.2,5.8,9.1
			c4.1,0.9,8.2-1.7,9.1-5.8c0.9-4.1-1.7-8.2-5.8-9.1C247.3,180.8,246.3,180.8,245.3,181L245.3,181z M245.7,183.4
			c0.7-0.1,1.4-0.1,2.1,0c2.8,0.6,4.6,3.4,4,6.2c-0.6,2.8-3.4,4.6-6.2,4c-2.8-0.6-4.6-3.4-4-6.2C242,185.2,243.7,183.7,245.7,183.4z
			 M366.5,189.2c-2.9,0.5-5.4,2.8-6.1,5.9c-0.9,4.1,1.7,8.2,5.8,9.1c4.1,0.9,8.2-1.7,9.1-5.8c0.9-4.1-1.7-8.2-5.8-9.1
			C368.5,189,367.5,189,366.5,189.2L366.5,189.2z M366.9,191.5c0.7-0.1,1.4-0.1,2.1,0c2.8,0.6,4.6,3.4,4,6.2c-0.6,2.8-3.4,4.6-6.2,4
			c-2.8-0.6-4.6-3.4-4-6.2C363.2,193.4,364.9,191.9,366.9,191.5z M287.7,196.9c-2.9,0.5-5.4,2.8-6.1,5.8c-0.9,4.1,1.7,8.2,5.8,9.1
			c4.1,0.9,8.2-1.7,9.1-5.8c0.9-4.1-1.7-8.2-5.8-9.1C289.7,196.7,288.7,196.7,287.7,196.9L287.7,196.9z M288.2,199.2
			c0.7-0.1,1.4-0.1,2.1,0c2.8,0.6,4.6,3.4,4,6.2c-0.6,2.8-3.4,4.6-6.2,4c-2.8-0.6-4.6-3.4-4-6.2
			C284.5,201.1,286.2,199.6,288.2,199.2z M335.1,200.9c-2.9,0.5-5.4,2.8-6.1,5.9c-0.9,4.1,1.7,8.2,5.8,9.1c4.1,0.9,8.2-1.7,9.1-5.8
			c0.9-4.1-1.7-8.2-5.8-9.1C337.1,200.8,336.1,200.8,335.1,200.9L335.1,200.9z M335.5,203.3c0.7-0.1,1.4-0.1,2.1,0
			c2.8,0.6,4.6,3.4,4,6.2c-0.6,2.8-3.4,4.6-6.2,4c-2.8-0.6-4.6-3.4-4-6.2C331.9,205.2,333.5,203.7,335.5,203.3L335.5,203.3z"/>
	</g>
	
		<g id="g4575_1_" transform="translate(29.856422,-50.448155)" inkscape:export-filename="E:\element\404-ijo.png" inkscape:export-xdpi="138.27602" inkscape:export-ydpi="138.27602">
		<path id="path4573_1_" inkscape:connector-curvature="0" class="st12" d="M46.1,108.6V180h0v28.8h74.4v59.6h28.6V108.7h-28.6V180
			H74.8v-71.4L46.1,108.6L46.1,108.6z"/>
		<path id="rect4501_1_" inkscape:connector-curvature="0" class="st9" d="M58.4,102.2v71.4h0v28.8h74.4v59.6h28.6V102.3h-28.6v71.3
			H87.2v-71.4L58.4,102.2L58.4,102.2z"/>
		<path id="path4508_1_" inkscape:connector-curvature="0" class="st11" d="M52.2,96.6c-0.6,0-1,0.5-1,1c0,0,0,0,0,0v71.2
			c0,0.1,0,0.1,0,0.2v28.8c0,0.6,0.5,1,1,1c0,0,0,0,0,0h73.4v58.5c0,0.6,0.5,1,1,1c0,0,0,0,0,0h28.6c0.6,0,1-0.5,1-1v0V97.7
			c0-0.6-0.5-1-1-1c0,0,0,0,0,0h-28.6c-0.6,0-1,0.5-1,1c0,0,0,0,0,0v70.2H82V97.6c0-0.6-0.5-1-1-1c0,0,0,0,0,0H52.2z M53.2,98.7
			h26.7V169c0,0.6,0.5,1,1,1h45.7c0.6,0,1-0.5,1-1V98.8h26.5v157.5h-26.5v-58.5c0-0.6-0.5-1-1-1c0,0,0,0,0,0H53.2v-27.6
			c0,0,0-0.1,0-0.2C53.2,169,53.2,98.7,53.2,98.7z"/>
	</g>
	
		<g id="g4580_1_" transform="translate(471.39462,-49.438002)" inkscape:export-filename="E:\element\404-ijo.png" inkscape:export-xdpi="138.27602" inkscape:export-ydpi="138.27602">
		<path id="path4582_1_" inkscape:connector-curvature="0" class="st12" d="M-42.2,108.4v71.4h0v28.8h74.4v59.6h28.6V108.5H32.2
			v71.3h-45.7v-71.4L-42.2,108.4L-42.2,108.4z"/>
		<path id="path4584_1_" inkscape:connector-curvature="0" class="st9" d="M-29.9,102v71.4h0v28.8h74.4v59.6h28.6V102.1H44.5v71.3
			H-1.1V102L-29.9,102L-29.9,102z"/>
		<path id="path4586_1_" inkscape:connector-curvature="0" class="st11" d="M-36.1,96.4c-0.6,0-1,0.5-1,1c0,0,0,0,0,0v71.2
			c0,0.1,0,0.1,0,0.2v28.8c0,0.6,0.5,1,1,1c0,0,0,0,0,0h73.4v58.5c0,0.6,0.5,1,1,1c0,0,0,0,0,0h28.6c0.6,0,1-0.5,1-1v0V97.5
			c0-0.6-0.5-1-1-1c0,0,0,0,0,0H38.3c-0.6,0-1,0.5-1,1c0,0,0,0,0,0v70.2H-6.3V97.4c0-0.6-0.5-1-1-1c0,0,0,0,0,0H-36.1z M-35.1,98.5
			h26.7v70.3c0,0.6,0.5,1,1,1h45.7c0.6,0,1-0.5,1-1V98.6h26.5v157.5H39.3v-58.5c0-0.6-0.5-1-1-1c0,0,0,0,0,0h-73.4v-27.6
			c0,0,0-0.1,0-0.2C-35.1,168.8-35.1,98.5-35.1,98.5z"/>
	</g>
	
		<path id="path4617_1_" inkscape:connector-curvature="0" inkscape:export-filename="E:\element\404-ijo.png" inkscape:export-xdpi="138.27602" inkscape:export-ydpi="138.27602" sodipodi:nodetypes="sssssssssssssssssss" class="st3" d="
		M356.3,181.1c-1.2,0-2.1,0.9-2.1,2.1c0,1.2,0.9,2.1,2.1,2.1h8.4c1.2,0,2.1,0.9,2.1,2.1c0,1.2-0.9,2.1-2.1,2.1h-1.2
		c-1.2,0-2.1,0.9-2.1,2.1s0.9,2.1,2.1,2.1h18.3c1.2,0,2.1-0.9,2.1-2.1s-0.9-2.1-2.1-2.1h-6.2c-1.2,0-2.1-0.9-2.1-2.1
		c0-1.2,0.9-2.1,2.1-2.1h11.4c1.2,0,2.1-0.9,2.1-2.1c0-1.2-0.9-2.1-2.1-2.1H356.3z"/>
</g>
</svg>
